<svg width="40" height="40" viewBox="0 0 40 40" fill="none" xmlns="http://www.w3.org/2000/svg">
<path d="M34.9999 3.33325H9.99992C9.11586 3.33325 8.26802 3.68444 7.6429 4.30956C7.01777 4.93468 6.66659 5.78253 6.66659 6.66659V11.6666H3.33325V14.9999H6.66659V18.3333H3.33325V21.6666H6.66659V24.9999H3.33325V28.3333H6.66659V33.3333C6.66659 34.2173 7.01777 35.0652 7.6429 35.6903C8.26802 36.3154 9.11586 36.6666 9.99992 36.6666H34.9999C35.4419 36.6666 35.8659 36.491 36.1784 36.1784C36.491 35.8659 36.6666 35.4419 36.6666 34.9999V4.99992C36.6666 4.55789 36.491 4.13397 36.1784 3.82141C35.8659 3.50885 35.4419 3.33325 34.9999 3.33325V3.33325ZM21.6666 8.33159C24.4133 8.33159 26.6666 10.5833 26.6666 13.3316C26.6618 14.6563 26.1335 15.9255 25.1969 16.8624C24.2603 17.7993 22.9913 18.328 21.6666 18.3333C18.9216 18.3333 16.6666 16.0783 16.6666 13.3316C16.6666 10.5833 18.9216 8.33159 21.6666 8.33159ZM31.6666 29.9999H11.6666V28.7499C11.6666 25.0516 16.1749 21.2499 21.6666 21.2499C27.1583 21.2499 31.6666 25.0516 31.6666 28.7499V29.9999Z" fill="#198754"/>
</svg>
