<svg width="232" height="232" viewBox="0 0 232 232" fill="none" xmlns="http://www.w3.org/2000/svg">
<rect width="232" height="232" fill="#198754"/>
<path d="M157.529 150.444C163.072 143.78 166.927 135.88 168.769 127.412C170.61 118.944 170.383 110.158 168.107 101.796C165.832 93.4348 161.574 85.7439 155.694 79.3743C149.814 73.0047 142.485 68.1438 134.328 65.2028C126.17 62.2618 117.424 61.3271 108.828 62.478C100.233 63.6288 92.0409 66.8313 84.946 71.8145C77.8511 76.7976 72.0618 83.4149 68.0677 91.1065C64.0737 98.7981 61.9924 107.338 62 116.003C62.0029 128.6 66.4456 140.793 74.5486 150.444L74.4714 150.509C74.7416 150.833 75.0503 151.111 75.3283 151.431C75.6756 151.828 76.0501 152.202 76.409 152.588C77.4898 153.76 78.6014 154.887 79.7671 155.943C80.1223 156.267 80.4889 156.568 80.8479 156.877C82.0831 157.941 83.353 158.952 84.6692 159.893C84.839 160.008 84.9934 160.159 85.1633 160.278V160.232C94.2036 166.589 104.988 170 116.042 170C127.097 170 137.881 166.589 146.922 160.232V160.278C147.092 160.159 147.242 160.008 147.416 159.893C148.728 158.948 150.002 157.941 151.237 156.877C151.596 156.568 151.963 156.263 152.318 155.943C153.484 154.883 154.595 153.76 155.676 152.588C156.035 152.202 156.405 151.828 156.757 151.431C157.031 151.111 157.343 150.833 157.614 150.505L157.529 150.444ZM116.039 85.1491C119.474 85.1491 122.832 86.167 125.689 88.074C128.545 89.981 130.771 92.6915 132.086 95.8628C133.401 99.0341 133.745 102.524 133.074 105.89C132.404 109.257 130.75 112.349 128.321 114.776C125.892 117.204 122.797 118.857 119.427 119.526C116.058 120.196 112.565 119.852 109.392 118.539C106.218 117.225 103.505 115.001 101.596 112.146C99.6878 109.292 98.6691 105.937 98.6691 102.504C98.6691 97.9015 100.499 93.4871 103.756 90.2324C107.014 86.9776 111.432 85.1491 116.039 85.1491V85.1491ZM85.1864 150.444C85.2534 145.38 87.313 140.546 90.9198 136.987C94.5265 133.429 99.3903 131.432 104.459 131.43H127.618C132.687 131.432 137.551 133.429 141.157 136.987C144.764 140.546 146.824 145.38 146.891 150.444C138.425 158.066 127.434 162.284 116.039 162.284C104.643 162.284 93.6518 158.066 85.1864 150.444V150.444Z" fill="#026336"/>
</svg>
